<?xml version="1.0" standalone="no"?>
<!DOCTYPE svg PUBLIC "-//W3C//DTD SVG 20010904//EN"
 "http://www.w3.org/TR/2001/REC-SVG-20010904/DTD/svg10.dtd">
<svg version="1.0" xmlns="http://www.w3.org/2000/svg"
 width="240.000000pt" height="240.000000pt" viewBox="0 0 240.000000 240.000000"
 preserveAspectRatio="xMidYMid meet">
<metadata>
Created by potrace 1.11, written by Peter Selinger 2001-2013
</metadata>
<g transform="translate(0.000000,240.000000) scale(0.100000,-0.100000)"
fill="#000000" stroke="none">
<path d="M1635 1576 c-23 -17 -14 -43 17 -48 13 -2 24 -11 26 -22 3 -16 -1
-18 -27 -14 -17 2 -31 1 -31 -4 0 -12 54 -10 68 4 20 20 13 38 -18 45 -33 6
-39 27 -12 42 9 6 12 11 6 11 -5 0 -19 -6 -29 -14z"/>
<path d="M2038 1530 c-2 -39 0 -50 12 -50 12 0 14 11 12 50 -2 27 -8 50 -12
50 -4 0 -10 -23 -12 -50z"/>
<path d="M2102 1563 c-13 -24 -4 -43 19 -43 24 0 25 -16 2 -29 -10 -6 -13 -11
-7 -11 6 0 19 9 28 19 19 21 19 72 0 78 -7 2 -10 -6 -7 -22 4 -19 1 -25 -12
-25 -13 0 -16 6 -13 25 6 29 2 32 -10 8z"/>
<path d="M2203 1573 l28 -4 -26 -45 c-14 -24 -22 -44 -17 -44 7 0 52 82 52 95
0 3 -15 4 -32 4 -32 -2 -32 -2 -5 -6z"/>
<path d="M2261 1553 c1 -23 2 -24 6 -6 3 14 13 23 31 26 24 4 24 4 -5 6 -30 1
-33 -2 -32 -26z"/>
<path d="M1710 1515 c0 -33 2 -35 33 -35 32 0 33 1 29 35 -5 43 -22 47 -22 5
0 -16 -4 -30 -10 -30 -5 0 -10 14 -10 30 0 17 -4 30 -10 30 -5 0 -10 -16 -10
-35z"/>
<path d="M1788 1543 c6 -2 12 -18 12 -34 0 -16 5 -29 10 -29 11 0 13 30 4 54
-3 9 -14 16 -23 15 -10 0 -11 -2 -3 -6z"/>
<path d="M1840 1535 c-19 -23 -3 -55 28 -54 24 2 24 2 5 6 -17 3 -23 11 -23
30 0 20 4 24 20 20 11 -3 20 -1 20 4 0 14 -36 10 -50 -6z"/>
<path d="M1911 1532 c-13 -24 4 -52 32 -51 21 0 21 1 -3 11 l-25 11 25 6 c26
7 34 31 12 39 -7 2 -10 -2 -6 -12 4 -11 1 -16 -11 -16 -11 0 -15 5 -11 15 8
21 -1 19 -13 -3z"/>
<path d="M2288 1538 c20 -20 14 -48 -10 -49 -18 -1 -19 -2 -5 -6 37 -10 66 47
31 61 -24 9 -29 7 -16 -6z"/>
<path d="M175 1495 c-38 -7 -89 -20 -112 -30 l-43 -17 0 -163 c0 -175 9 -220
55 -281 104 -137 346 -112 427 45 27 52 28 57 28 226 l0 173 -39 15 c-42 17
-191 48 -225 46 -11 0 -52 -7 -91 -14z m63 -219 c-10 -7 -18 -23 -18 -35 0
-12 -6 -21 -15 -21 -8 0 -15 7 -15 16 0 8 5 12 11 8 7 -4 7 1 -1 16 -7 13 -8
20 -2 16 6 -3 13 -2 17 4 3 5 14 10 23 10 16 -1 16 -2 0 -14z m30 -28 c1 -23
7 -45 13 -49 7 -4 8 -9 1 -13 -5 -3 -13 1 -16 10 -5 13 -15 15 -44 10 -29 -4
-32 -4 -14 4 12 5 22 17 22 26 0 13 20 42 36 53 0 1 1 -18 2 -41z m47 12 c7 0
21 7 29 16 15 14 16 11 16 -32 l0 -46 -32 6 c-40 8 -44 12 -29 29 9 11 8 17
-4 27 -8 7 -15 18 -15 24 0 6 5 3 11 -6 5 -10 16 -18 24 -18z m15 20 c0 -5 -4
-10 -9 -10 -6 0 -13 5 -16 10 -3 6 1 10 9 10 9 0 16 -4 16 -10z m93 -144 c6
-16 -2 -28 -14 -20 -12 7 -11 34 0 34 5 0 11 -6 14 -14z m-273 -4 c0 -13 -12
-22 -22 -16 -10 6 -1 24 13 24 5 0 9 -4 9 -8z"/>
<path d="M316 1235 c-4 -12 -1 -16 11 -13 18 3 21 20 5 26 -5 1 -12 -4 -16
-13z"/>
<path d="M560 1421 c0 -5 7 -11 15 -15 11 -4 15 -23 15 -79 0 -81 6 -93 57
-103 30 -6 71 8 85 30 4 6 8 42 8 79 0 51 4 69 15 73 27 11 16 24 -20 24 -19
0 -35 -4 -35 -10 0 -5 5 -10 10 -10 14 0 13 -133 -2 -148 -7 -7 -24 -12 -38
-12 -40 0 -50 18 -50 92 0 55 3 68 16 68 8 0 12 5 9 10 -8 12 -85 13 -85 1z"/>
<path d="M790 1421 c0 -5 7 -11 15 -15 24 -9 21 -151 -2 -165 -14 -8 -10 -10
22 -11 25 0 35 3 27 9 -9 5 -12 27 -10 71 l3 63 55 -71 c30 -39 63 -73 73 -75
15 -5 17 4 17 89 0 78 3 94 16 94 8 0 12 5 9 10 -3 6 -22 10 -41 10 -19 0 -34
-4 -34 -10 0 -5 7 -10 15 -10 12 0 15 -15 15 -71 l0 -71 -65 81 c-50 62 -72
81 -90 81 -14 0 -25 -4 -25 -9z"/>
<path d="M1030 1420 c0 -4 7 -10 15 -14 24 -9 21 -151 -2 -165 -14 -8 -6 -10
32 -10 28 1 42 3 33 6 -15 4 -18 17 -18 89 l0 85 27 -3 c24 -3 31 -14 62 -91
20 -49 40 -90 45 -90 6 -1 27 39 48 88 21 50 43 92 48 93 23 8 7 22 -25 22
-34 0 -48 -14 -23 -22 8 -3 5 -22 -12 -67 -12 -34 -26 -59 -30 -54 -15 16 -49
123 -40 123 6 0 10 4 10 9 0 5 -38 9 -85 10 -47 0 -85 -4 -85 -9z"/>
<path d="M1340 1421 c0 -5 7 -11 15 -15 24 -9 21 -151 -2 -165 -13 -8 4 -10
65 -11 81 0 82 0 82 25 0 14 -4 25 -10 25 -5 0 -10 -6 -10 -14 0 -16 -21 -26
-56 -26 -21 0 -24 4 -24 40 0 36 3 40 25 40 13 0 29 -8 34 -17 8 -14 10 -10
10 22 0 22 -3 34 -6 28 -2 -7 -18 -13 -34 -13 -26 0 -29 3 -29 35 0 33 2 35
35 35 24 0 35 -5 35 -15 0 -8 4 -15 9 -15 10 0 21 36 13 44 -9 10 -152 7 -152
-3z"/>
<path d="M1520 1421 c0 -5 7 -11 15 -15 24 -9 21 -151 -2 -165 -14 -8 -6 -10
32 -10 28 1 42 3 33 6 -14 3 -18 15 -18 46 l1 42 42 -46 c38 -42 48 -47 96
-53 69 -7 118 12 127 50 10 38 -6 57 -57 69 -33 8 -45 16 -47 32 -2 14 4 23
17 28 28 8 61 -3 61 -21 0 -8 5 -14 10 -14 16 0 11 47 -6 54 -34 13 -75 6 -99
-19 -44 -43 -25 -81 45 -93 46 -8 58 -24 41 -51 -13 -21 -71 -18 -87 4 -13 18
-14 18 -14 -3 0 -32 -12 -27 -49 18 l-33 41 26 20 c31 24 34 64 7 79 -24 12
-141 13 -141 1z m114 -27 c22 -21 4 -54 -29 -54 -22 0 -25 4 -25 35 0 28 4 35
19 35 11 0 27 -7 35 -16z"/>
<path d="M1860 1421 c0 -5 7 -11 15 -15 24 -9 21 -151 -2 -165 -14 -8 -6 -10
32 -10 28 1 42 3 33 6 -15 4 -18 17 -18 89 0 69 3 84 16 84 8 0 12 5 9 10 -8
12 -85 13 -85 1z"/>
<path d="M1960 1403 c1 -25 2 -26 14 -10 7 9 21 17 30 17 14 0 16 -13 16 -84
0 -58 -4 -86 -12 -89 -7 -3 7 -5 32 -5 25 0 39 2 33 5 -9 3 -13 31 -13 89 0
71 2 84 16 84 9 0 23 -8 30 -17 12 -16 13 -15 14 10 l0 27 -80 0 -80 0 0 -27z"/>
<path d="M2142 1421 c-11 -7 -11 -9 2 -14 23 -9 76 -98 76 -129 0 -15 -8 -31
-17 -37 -14 -8 -6 -10 32 -10 28 1 42 3 33 6 -31 8 -23 71 17 130 39 58 41 63
22 63 -7 0 -23 -20 -37 -45 -14 -25 -27 -45 -30 -45 -3 0 -17 21 -32 45 -27
45 -41 52 -66 36z"/>
<path d="M594 1136 c-37 -37 -43 -70 -20 -115 19 -35 55 -51 117 -51 61 0 104
21 124 60 43 83 -8 140 -126 140 -56 0 -64 -3 -95 -34z m173 -11 c38 -44 30
-106 -18 -130 -38 -20 -68 -19 -106 5 -55 33 -56 127 -1 150 39 17 100 4 125
-25z"/>
<path d="M850 1163 c25 -10 30 -25 30 -93 0 -68 -5 -83 -30 -93 -8 -3 12 -5
45 -6 46 0 55 2 38 9 -19 8 -23 17 -23 50 0 38 2 40 29 40 16 0 37 -7 45 -16
15 -14 16 -12 16 23 -1 34 -2 36 -14 21 -8 -11 -26 -18 -45 -18 -31 0 -32 1
-29 38 3 35 5 37 41 40 26 2 39 -1 43 -12 9 -23 24 -20 24 4 0 19 -6 20 -92
19 -51 0 -86 -3 -78 -6z"/>
<path d="M1140 1163 c25 -10 30 -25 30 -93 0 -68 -5 -83 -30 -93 -8 -3 10 -6
40 -6 42 0 51 2 38 10 -15 8 -18 24 -18 89 0 65 3 81 18 89 13 8 4 10 -38 10
-30 0 -48 -3 -40 -6z"/>
<path d="M1268 1160 c20 -8 22 -16 22 -80 0 -39 -5 -80 -10 -91 -10 -18 -7
-19 78 -19 88 0 90 1 94 25 6 30 -3 32 -20 5 -9 -16 -23 -20 -62 -20 l-50 0 0
85 c0 79 2 86 23 95 17 7 8 9 -38 9 -46 0 -55 -2 -37 -9z"/>
<path d="M1504 1136 c-37 -37 -43 -70 -20 -115 19 -35 55 -51 117 -51 61 0
104 21 124 60 43 83 -8 140 -126 140 -56 0 -64 -3 -95 -34z m173 -11 c38 -44
30 -106 -18 -130 -38 -20 -68 -19 -106 5 -55 33 -56 127 -1 150 39 17 100 4
125 -25z"/>
<path d="M1760 1163 c25 -10 30 -25 30 -93 0 -68 -5 -83 -30 -93 -8 -3 12 -5
45 -6 46 0 55 2 38 9 -21 9 -23 16 -23 90 0 89 9 101 59 84 51 -18 31 -74 -28
-74 -24 0 -21 -4 29 -55 37 -37 62 -55 79 -55 24 0 22 3 -23 49 l-49 50 27 12
c30 14 44 52 26 74 -9 11 -34 15 -104 14 -50 0 -84 -3 -76 -6z"/>
<path d="M2000 1163 c25 -10 30 -25 30 -93 0 -68 -5 -83 -30 -93 -8 -3 10 -6
40 -6 42 0 51 2 38 10 -15 8 -18 24 -18 89 0 65 3 81 18 89 13 8 4 10 -38 10
-30 0 -48 -3 -40 -6z"/>
<path d="M2120 1163 c25 -10 30 -25 30 -93 0 -68 -5 -83 -30 -93 -8 -3 8 -5
35 -5 28 0 43 2 35 5 -25 10 -30 25 -30 92 l0 64 85 -82 c46 -44 91 -81 100
-81 12 0 15 16 15 90 0 74 3 91 18 99 13 8 7 10 -28 10 -35 0 -41 -2 -27 -10
14 -8 17 -24 17 -82 l0 -72 -83 83 c-73 72 -87 82 -117 81 -19 0 -28 -3 -20
-6z"/>
<path d="M1143 928 c-15 -19 -24 -78 -13 -78 6 0 10 15 10 33 0 18 5 38 12 45
7 7 9 12 6 12 -3 0 -10 -6 -15 -12z"/>
<path d="M616 905 c-4 -16 -10 -36 -12 -43 -3 -9 4 -12 24 -10 20 2 27 9 27
25 0 12 4 25 8 29 10 11 9 24 -3 24 -5 0 -9 -5 -7 -11 1 -6 -3 -13 -10 -16 -6
-2 -13 4 -16 14 -3 13 -6 10 -11 -12z m34 -30 c0 -8 -7 -15 -15 -15 -8 0 -15
7 -15 15 0 8 7 15 15 15 8 0 15 -7 15 -15z"/>
<path d="M960 913 c0 -10 -3 -28 -6 -40 -4 -13 -2 -23 2 -23 5 0 10 18 12 40
1 22 0 40 -3 40 -3 0 -5 -8 -5 -17z"/>
<path d="M739 890 c-7 -35 -4 -48 7 -38 3 4 4 21 2 40 l-3 33 -6 -35z"/>
<path d="M779 890 c-7 -35 -4 -48 7 -38 3 4 4 21 2 40 l-3 33 -6 -35z"/>
<path d="M702 896 c7 -8 15 -12 17 -11 5 6 -10 25 -20 25 -5 0 -4 -6 3 -14z"/>
<path d="M842 896 c7 -8 15 -12 17 -11 5 6 -10 25 -20 25 -5 0 -4 -6 3 -14z"/>
<path d="M878 885 c-6 -30 -3 -43 8 -33 3 4 4 19 2 35 l-3 28 -7 -30z"/>
<path d="M989 901 c9 -6 11 -16 7 -27 -6 -15 -4 -16 5 -7 14 14 5 43 -13 43
-10 0 -9 -3 1 -9z"/>
<path d="M1030 894 c0 -10 5 -26 10 -34 8 -11 9 -7 4 15 -8 37 -14 45 -14 19z"/>
<path d="M1194 902 c4 -7 3 -12 -2 -12 -6 0 -8 -9 -5 -20 3 -11 8 -20 12 -20
12 0 11 49 -1 56 -7 4 -8 3 -4 -4z"/>
<path d="M1228 885 c-6 -30 -3 -43 8 -33 3 4 4 19 2 35 l-3 28 -7 -30z"/>
<path d="M670 870 c0 -11 4 -20 9 -20 5 0 7 9 4 20 -3 11 -7 20 -9 20 -2 0 -4
-9 -4 -20z"/>
<path d="M810 870 c0 -11 4 -20 9 -20 5 0 7 9 4 20 -3 11 -7 20 -9 20 -2 0 -4
-9 -4 -20z"/>
<path d="M1160 865 c0 -8 4 -15 10 -15 5 0 7 7 4 15 -4 8 -8 15 -10 15 -2 0
-4 -7 -4 -15z"/>
</g>
</svg>
